# xmcd
#
# Track frame offsets:
#	182
#	30107
#	66655
#	103742
#	149342
#	179177
#	220620
#	243657
#	260447
#	278462
#
# Disc length: 4146
#
# Revision: 1
# Processed by: cddbd v1.5.1PL0 Copyright (c) Steve Scherf et al.
# Submitted via: CDex 1.50
# Normalized: r0:DSETVAR2
#
DISCID=9610300a
DTITLE=Various Artist - Richter Band
DYEAR=1992
DGENRE=New Age
TTITLE0=Kristalove rano - Crystal Morning
TTITLE1=Cestou - On The Way
TTITLE2=Bludiste - Maze
TTITLE3=Tanec I - Dance I
TTITLE4=Zelizko - Iron
TTITLE5=Tanec II - Dance II
TTITLE6=Tam - There
TTITLE7=Oh Mary II - Oh Mary II
TTITLE8=Vzestup - Rise
TTITLE9=Staroveka - Ancient
EXTD=YEAR: 1992
EXTT0=
EXTT1=
EXTT2=
EXTT3=
EXTT4=
EXTT5=
EXTT6=
EXTT7=
EXTT8=
EXTT9=
PLAYORDER=
